<svg xmlns="http://www.w3.org/2000/svg" viewBox="0 0 64 64">
  <defs>
    <linearGradient id="sun-grad" x1="0%" y1="0%" x2="100%" y2="100%">
      <stop offset="0%" stop-color="#fbbf24" />
      <stop offset="100%" stop-color="#f97316" />
    </linearGradient>
    <linearGradient id="cloud-grad" x1="0%" y1="0%" x2="100%" y2="100%">
      <stop offset="0%" stop-color="#ffffff" />
      <stop offset="100%" stop-color="#cbd5e1" />
    </linearGradient>
    <filter id="glow" x="-20%" y="-20%" width="140%" height="140%">
      <feGaussianBlur stdDeviation="2" result="blur" />
      <feComposite in="SourceGraphic" in2="blur" operator="over" />
    </filter>
  </defs>
  <!-- Glow Sun -->
  <circle cx="40" cy="24" r="14" fill="url(#sun-grad)" filter="url(#glow)" />
  <!-- Cloud -->
  <path d="M46,44 C46,49.5 41.5,54 36,54 L20,54 C13.4,54 8,48.6 8,42 C8,35.9 12.6,30.9 18.6,30.1 C20.8,22 28.2,16 37,16 C46.7,16 54.8,23.3 55.9,32.8 C60.5,33.9 64,38 64,43 C64,48.5 59.5,53 54,53 L46,53" fill="url(#cloud-grad)" />
</svg>
